ISO-10303-21;
HEADER;
FILE_DESCRIPTION(('Open CASCADE Model'),'2;1');
FILE_NAME('Open CASCADE Shape Model','2026-08-16T12:51:59',('Author'),(
    'Open CASCADE'),'Open CASCADE STEP processor 7.9','Open CASCADE 7.9'
  ,'Unknown');
FILE_SCHEMA(('AUTOMOTIVE_DESIGN { 1 0 10303 214 1 1 1 1 }'));
ENDSEC;
DATA;
#1 = APPLICATION_PROTOCOL_DEFINITION('international standard',
  'automotive_design',2000,#2);
#2 = APPLICATION_CONTEXT(
  'core data for automotive mechanical design processes');
#3 = SHAPE_DEFINITION_REPRESENTATION(#4,#10);
#4 = PRODUCT_DEFINITION_SHAPE('','',#5);
#5 = PRODUCT_DEFINITION('design','',#6,#9);
#6 = PRODUCT_DEFINITION_FORMATION('','',#7);
#7 = PRODUCT('Open CASCADE STEP translator 7.9 10',
  'Open CASCADE STEP translator 7.9 10','',(#8));
#8 = PRODUCT_CONTEXT('',#2,'mechanical');
#9 = PRODUCT_DEFINITION_CONTEXT('part definition',#2,'design');
#10 = ADVANCED_BREP_SHAPE_REPRESENTATION('',(#11,#15),#768);
#11 = AXIS2_PLACEMENT_3D('',#12,#13,#14);
#12 = CARTESIAN_POINT('',(0.,0.,0.));
#13 = DIRECTION('',(0.,0.,1.));
#14 = DIRECTION('',(1.,0.,-0.));
#15 = MANIFOLD_SOLID_BREP('',#16);
#16 = CLOSED_SHELL('',(#17,#760,#764));
#17 = ADVANCED_FACE('',(#18),#110,.F.);
#18 = FACE_BOUND('',#19,.F.);
#19 = EDGE_LOOP('',(#20,#691,#725,#726));
#20 = ORIENTED_EDGE('',*,*,#21,.T.);
#21 = EDGE_CURVE('',#22,#24,#26,.T.);
#22 = VERTEX_POINT('',#23);
#23 = CARTESIAN_POINT('',(2.22044604925E-16,-1.908195823574E-17,-2.));
#24 = VERTEX_POINT('',#25);
#25 = CARTESIAN_POINT('',(9.550001675335,-2.049410065463E-07,
    -1.999999999994));
#26 = SEAM_CURVE('',#27,(#109,#684),.PCURVE_S1.);
#27 = ( BOUNDED_CURVE() B_SPLINE_CURVE(10,(#28,#29,#30,#31,#32,#33,#34,
    #35,#36,#37,#38,#39,#40,#41,#42,#43,#44,#45,#46,#47,#48,#49,#50,#51,
    #52,#53,#54,#55,#56,#57,#58,#59,#60,#61,#62,#63,#64,#65,#66,#67,#68,
    #69,#70,#71,#72,#73,#74,#75,#76,#77,#78,#79,#80,#81,#82,#83,#84,#85,
    #86,#87,#88,#89,#90,#91,#92,#93,#94,#95,#96,#97,#98,#99,#100,#101,
    #102,#103,#104,#105,#106,#107,#108),.UNSPECIFIED.,.F.,.F.) 
B_SPLINE_CURVE_WITH_KNOTS((11,10,10,10,10,10,10,10,11),(0.,
    5.625895710092,11.251791420185,16.877687130277,22.50358284037,
    28.129478550462,33.755374260554,39.381269970647,45.007165680739),
.PIECEWISE_BEZIER_KNOTS.) CURVE() GEOMETRIC_REPRESENTATION_ITEM() 
RATIONAL_B_SPLINE_CURVE((1.669078461068,1.669078461068,1.669078461068,
    1.669078461069,1.669078461068,1.669078461069,1.669078461068,
    1.669078461068,1.669078461068,1.669078461068,1.669078461068,
    1.669078461068,1.669078461068,1.669078461069,1.669078461068,
    1.669078461069,1.669078461068,1.669078461068,1.669078461068,
    1.669078461068,1.669078461068,1.669078461068,1.669078461068,
    1.669078461069,1.669078461068,1.669078461069,1.669078461068,
    1.669078461068,1.669078461068,1.669078461068,1.669078461068,
    1.669078461068,1.669078461068,1.669078461069,1.669078461068,
    1.669078461069,1.669078461068,1.669078461068,1.669078461068,
    1.669078461068,1.669078461068,1.669078461068,1.669078461068,
    1.669078461069,1.669078461068,1.669078461069,1.669078461068,
    1.669078461068,1.669078461068,1.669078461068,1.669078461068,
    1.669078461068,1.669078461068,1.669078461068,1.669078461068,
    1.669078461068,1.669078461068,1.669078461068,1.669078461068,
    1.669078461068,1.669078461068,1.669078461068,1.669078461068,
    1.669078461068,1.669078461068,1.669078461068,1.669078461068,
    1.669078461068,1.669078461068,1.669078461068,1.669078461068,
    1.669078461068,1.669078461068,1.669078461068,1.669078461068,
    1.669078461068,1.669078461068,1.669078461068,1.669078461068,
1.669078461068,1.669078461068)) REPRESENTATION_ITEM('') );
#28 = CARTESIAN_POINT('',(2.22044604925E-16,-1.908195823574E-17,-2.));
#29 = CARTESIAN_POINT('',(0.119381251567,1.099550262443,-1.999999985508)
  );
#30 = CARTESIAN_POINT('',(0.23873450533,2.199354697457,-1.328446076256)
  );
#31 = CARTESIAN_POINT('',(0.358153364471,2.835764037164,
    1.588914304727E-02));
#32 = CARTESIAN_POINT('',(0.477475821636,2.555749679318,1.664513947494)
  );
#33 = CARTESIAN_POINT('',(0.596881053149,1.206234686207,2.912109257436)
  );
#34 = CARTESIAN_POINT('',(0.716266083094,-0.630197552584,2.984176552163)
  );
#35 = CARTESIAN_POINT('',(0.835606311602,-1.993953211806,2.016424037175)
  );
#36 = CARTESIAN_POINT('',(0.955011506004,-2.494531270909,0.615825219719)
  );
#37 = CARTESIAN_POINT('',(1.074373822966,-2.191713364252,-0.636713601198
    ));
#38 = CARTESIAN_POINT('',(1.19375,-1.414213562373,-1.414213562373));
#39 = CARTESIAN_POINT('',(1.313131251568,-0.636714105297,-2.191712998955
    ));
#40 = CARTESIAN_POINT('',(1.432484505328,0.615825391845,-2.494531849767)
  );
#41 = CARTESIAN_POINT('',(1.551903364473,2.016423301319,-1.993952659729)
  );
#42 = CARTESIAN_POINT('',(1.671225821634,2.984177028914,-0.630198829606)
  );
#43 = CARTESIAN_POINT('',(1.790631053151,2.912108929809,1.206235477168)
  );
#44 = CARTESIAN_POINT('',(1.910016083092,1.664514513372,2.555748439213)
  );
#45 = CARTESIAN_POINT('',(2.029356311603,1.588927299777E-02,
    2.83576494787));
#46 = CARTESIAN_POINT('',(2.148761506004,-1.328445788652,2.199354166431)
  );
#47 = CARTESIAN_POINT('',(2.268123822966,-1.999999887361,1.099550877199)
  );
#48 = CARTESIAN_POINT('',(2.3875,-2.,6.343536806952E-15));
#49 = CARTESIAN_POINT('',(2.506881251568,-1.999999985508,-1.099550262443
    ));
#50 = CARTESIAN_POINT('',(2.626234505328,-1.328446076256,-2.199354697457
    ));
#51 = CARTESIAN_POINT('',(2.745653364474,1.588914304625E-02,
    -2.835764037165));
#52 = CARTESIAN_POINT('',(2.864975821633,1.664513947495,-2.555749679316)
  );
#53 = CARTESIAN_POINT('',(2.984381053151,2.912109257436,-1.206234686209)
  );
#54 = CARTESIAN_POINT('',(3.103766083093,2.984176552162,0.630197552586)
  );
#55 = CARTESIAN_POINT('',(3.223106311602,2.016424037175,1.993953211805)
  );
#56 = CARTESIAN_POINT('',(3.342511506005,0.615825219719,2.494531270909)
  );
#57 = CARTESIAN_POINT('',(3.461873822965,-0.636713601198,2.191713364252)
  );
#58 = CARTESIAN_POINT('',(3.58125,-1.414213562373,1.414213562373));
#59 = CARTESIAN_POINT('',(3.700631251567,-2.191712998955,0.636714105297)
  );
#60 = CARTESIAN_POINT('',(3.819984505329,-2.494531849767,-0.615825391845
    ));
#61 = CARTESIAN_POINT('',(3.939403364473,-1.993952659729,-2.016423301319
    ));
#62 = CARTESIAN_POINT('',(4.058725821634,-0.630198829606,-2.984177028914
    ));
#63 = CARTESIAN_POINT('',(4.178131053151,1.206235477168,-2.912108929809)
  );
#64 = CARTESIAN_POINT('',(4.297516083093,2.555748439213,-1.664514513373)
  );
#65 = CARTESIAN_POINT('',(4.416856311602,2.83576494787,
    -1.588927299711E-02));
#66 = CARTESIAN_POINT('',(4.536261506004,2.199354166431,1.328445788652)
  );
#67 = CARTESIAN_POINT('',(4.655623822966,1.099550877199,1.999999887361)
  );
#68 = CARTESIAN_POINT('',(4.775,2.219838896034E-14,2.));
#69 = CARTESIAN_POINT('',(4.894381251567,-1.099550262443,1.999999985508)
  );
#70 = CARTESIAN_POINT('',(5.013734505329,-2.199354697457,1.328446076256)
  );
#71 = CARTESIAN_POINT('',(5.133153364472,-2.835764037165,
    -1.588914304718E-02));
#72 = CARTESIAN_POINT('',(5.252475821636,-2.555749679318,-1.664513947494
    ));
#73 = CARTESIAN_POINT('',(5.371881053148,-1.206234686208,-2.912109257437
    ));
#74 = CARTESIAN_POINT('',(5.491266083095,0.630197552584,-2.984176552162)
  );
#75 = CARTESIAN_POINT('',(5.6106063116,1.993953211806,-2.016424037175));
#76 = CARTESIAN_POINT('',(5.730011506005,2.494531270908,-0.615825219719)
  );
#77 = CARTESIAN_POINT('',(5.849373822966,2.191713364253,0.636713601198)
  );
#78 = CARTESIAN_POINT('',(5.96875,1.414213562373,1.414213562373));
#79 = CARTESIAN_POINT('',(6.088131251567,0.636714105297,2.191712998955)
  );
#80 = CARTESIAN_POINT('',(6.207484505328,-0.615825391845,2.494531849767)
  );
#81 = CARTESIAN_POINT('',(6.326903364476,-2.01642330132,1.993952659729)
  );
#82 = CARTESIAN_POINT('',(6.446225821629,-2.984177028912,0.630198829607)
  );
#83 = CARTESIAN_POINT('',(6.565631053156,-2.912108929811,-1.206235477169
    ));
#84 = CARTESIAN_POINT('',(6.68501608309,-1.664514513371,-2.555748439211)
  );
#85 = CARTESIAN_POINT('',(6.804356311603,-1.58892729978E-02,
    -2.835764947871));
#86 = CARTESIAN_POINT('',(6.923761506004,1.328445788652,-2.19935416643)
  );
#87 = CARTESIAN_POINT('',(7.043123822966,1.999999887361,-1.099550877199)
  );
#88 = CARTESIAN_POINT('',(7.1625,2.,2.255556852404E-14));
#89 = CARTESIAN_POINT('',(7.281881251568,1.999999985508,1.099550262443)
  );
#90 = CARTESIAN_POINT('',(7.401234505327,1.328446076256,2.199354697457)
  );
#91 = CARTESIAN_POINT('',(7.520653364476,-1.588914304684E-02,
    2.835764037165));
#92 = CARTESIAN_POINT('',(7.63997582163,-1.664513947494,2.555749679316)
  );
#93 = CARTESIAN_POINT('',(7.759381053155,-2.912109257438,1.206234686209)
  );
#94 = CARTESIAN_POINT('',(7.878766083089,-2.984176552161,-0.630197552585
    ));
#95 = CARTESIAN_POINT('',(7.998106311605,-2.016424037176,-1.993953211806
    ));
#96 = CARTESIAN_POINT('',(8.117511506002,-0.615825219719,-2.494531270908
    ));
#97 = CARTESIAN_POINT('',(8.236873822967,0.636713601198,-2.191713364252)
  );
#98 = CARTESIAN_POINT('',(8.356249999999,1.414213562373,-1.414213562373)
  );
#99 = CARTESIAN_POINT('',(8.475631084036,2.191713019449,-0.636714105298)
  );
#100 = CARTESIAN_POINT('',(8.594985223473,2.494531761918,0.615825391848)
  );
#101 = CARTESIAN_POINT('',(8.714401509782,1.99395288661,2.016423301313)
  );
#102 = CARTESIAN_POINT('',(8.83372933366,0.630198399988,2.984177028925)
  );
#103 = CARTESIAN_POINT('',(8.95312583766,-1.206234839168,2.912108929792)
  );
#104 = CARTESIAN_POINT('',(9.072522341685,-2.555749204814,1.664514513394
    ));
#105 = CARTESIAN_POINT('',(9.191850165545,-2.835764196034,
    1.588927297522E-02));
#106 = CARTESIAN_POINT('',(9.311266451863,-2.199354771449,
    -1.328445788634));
#107 = CARTESIAN_POINT('',(9.430620591297,-1.099550481874,
    -1.999999887373));
#108 = CARTESIAN_POINT('',(9.550001675335,-2.049410065463E-07,
    -1.999999999994));
#109 = PCURVE('',#110,#678);
#110 = ( BOUNDED_SURFACE() B_SPLINE_SURFACE(6,10,(
    (#111,#112,#113,#114,#115,#116,#117,#118,#119,#120,#121,#122,#123
      ,#124,#125,#126,#127,#128,#129,#130,#131,#132,#133,#134,#135,#136
      ,#137,#138,#139,#140,#141,#142,#143,#144,#145,#146,#147,#148,#149
      ,#150,#151,#152,#153,#154,#155,#156,#157,#158,#159,#160,#161,#162
      ,#163,#164,#165,#166,#167,#168,#169,#170,#171,#172,#173,#174,#175
      ,#176,#177,#178,#179,#180,#181,#182,#183,#184,#185,#186,#187,#188
      ,#189,#190,#191)
    ,(#192,#193,#194,#195,#196,#197,#198,#199,#200,#201,#202,#203,#204
      ,#205,#206,#207,#208,#209,#210,#211,#212,#213,#214,#215,#216,#217
      ,#218,#219,#220,#221,#222,#223,#224,#225,#226,#227,#228,#229,#230
      ,#231,#232,#233,#234,#235,#236,#237,#238,#239,#240,#241,#242,#243
      ,#244,#245,#246,#247,#248,#249,#250,#251,#252,#253,#254,#255,#256
      ,#257,#258,#259,#260,#261,#262,#263,#264,#265,#266,#267,#268,#269
      ,#270,#271,#272)
    ,(#273,#274,#275,#276,#277,#278,#279,#280,#281,#282,#283,#284,#285
      ,#286,#287,#288,#289,#290,#291,#292,#293,#294,#295,#296,#297,#298
      ,#299,#300,#301,#302,#303,#304,#305,#306,#307,#308,#309,#310,#311
      ,#312,#313,#314,#315,#316,#317,#318,#319,#320,#321,#322,#323,#324
      ,#325,#326,#327,#328,#329,#330,#331,#332,#333,#334,#335,#336,#337
      ,#338,#339,#340,#341,#342,#343,#344,#345,#346,#347,#348,#349,#350
      ,#351,#352,#353)
    ,(#354,#355,#356,#357,#358,#359,#360,#361,#362,#363,#364,#365,#366
      ,#367,#368,#369,#370,#371,#372,#373,#374,#375,#376,#377,#378,#379
      ,#380,#381,#382,#383,#384,#385,#386,#387,#388,#389,#390,#391,#392
      ,#393,#394,#395,#396,#397,#398,#399,#400,#401,#402,#403,#404,#405
      ,#406,#407,#408,#409,#410,#411,#412,#413,#414,#415,#416,#417,#418
      ,#419,#420,#421,#422,#423,#424,#425,#426,#427,#428,#429,#430,#431
      ,#432,#433,#434)
    ,(#435,#436,#437,#438,#439,#440,#441,#442,#443,#444,#445,#446,#447
      ,#448,#449,#450,#451,#452,#453,#454,#455,#456,#457,#458,#459,#460
      ,#461,#462,#463,#464,#465,#466,#467,#468,#469,#470,#471,#472,#473
      ,#474,#475,#476,#477,#478,#479,#480,#481,#482,#483,#484,#485,#486
      ,#487,#488,#489,#490,#491,#492,#493,#494,#495,#496,#497,#498,#499
      ,#500,#501,#502,#503,#504,#505,#506,#507,#508,#509,#510,#511,#512
      ,#513,#514,#515)
    ,(#516,#517,#518,#519,#520,#521,#522,#523,#524,#525,#526,#527,#528
      ,#529,#530,#531,#532,#533,#534,#535,#536,#537,#538,#539,#540,#541
      ,#542,#543,#544,#545,#546,#547,#548,#549,#550,#551,#552,#553,#554
      ,#555,#556,#557,#558,#559,#560,#561,#562,#563,#564,#565,#566,#567
      ,#568,#569,#570,#571,#572,#573,#574,#575,#576,#577,#578,#579,#580
      ,#581,#582,#583,#584,#585,#586,#587,#588,#589,#590,#591,#592,#593
      ,#594,#595,#596)
    ,(#597,#598,#599,#600,#601,#602,#603,#604,#605,#606,#607,#608,#609
      ,#610,#611,#612,#613,#614,#615,#616,#617,#618,#619,#620,#621,#622
      ,#623,#624,#625,#626,#627,#628,#629,#630,#631,#632,#633,#634,#635
      ,#636,#637,#638,#639,#640,#641,#642,#643,#644,#645,#646,#647,#648
      ,#649,#650,#651,#652,#653,#654,#655,#656,#657,#658,#659,#660,#661
      ,#662,#663,#664,#665,#666,#667,#668,#669,#670,#671,#672,#673,#674
      ,#675,#676,#677
)),.UNSPECIFIED.,.T.,.F.,.F.) B_SPLINE_SURFACE_WITH_KNOTS((1,6,6,1),(11,
    10,10,10,10,10,10,10,11),(-6.28318530718,0.,6.28318530718,
    12.566370614359),(0.,5.625895710092,11.251791420185,16.877687130277,
    22.50358284037,28.129478550462,33.755374260554,39.381269970647,
45.007165680739),.UNSPECIFIED.) GEOMETRIC_REPRESENTATION_ITEM() 
RATIONAL_B_SPLINE_SURFACE((
    (1.669078461068,1.669078461068,1.669078461068,1.669078461069
      ,1.669078461068,1.669078461069,1.669078461068,1.669078461068
      ,1.669078461068,1.669078461068,1.669078461068,1.669078461068
      ,1.669078461068,1.669078461069,1.669078461068,1.669078461069
      ,1.669078461068,1.669078461068,1.669078461068,1.669078461068
      ,1.669078461068,1.669078461068,1.669078461068,1.669078461069
      ,1.669078461068,1.669078461069,1.669078461068,1.669078461068
      ,1.669078461068,1.669078461068,1.669078461068,1.669078461068
      ,1.669078461068,1.669078461069,1.669078461068,1.669078461069
      ,1.669078461068,1.669078461068,1.669078461068,1.669078461068
      ,1.669078461068,1.669078461068,1.669078461068,1.669078461069
      ,1.669078461068,1.669078461069,1.669078461068,1.669078461068
      ,1.669078461068,1.669078461068,1.669078461068,1.669078461068
      ,1.669078461068,1.669078461068,1.669078461068,1.669078461068
      ,1.669078461068,1.669078461068,1.669078461068,1.669078461068
      ,1.669078461068,1.669078461068,1.669078461068,1.669078461068
      ,1.669078461068,1.669078461068,1.669078461068,1.669078461068
      ,1.669078461068,1.669078461068,1.669078461068,1.669078461068
      ,1.669078461068,1.669078461068,1.669078461068,1.669078461068
      ,1.669078461068,1.669078461068,1.669078461068,1.669078461068
      ,1.669078461068)
    ,(1.03672962321,1.03672962321,1.036729623209,1.03672962321
      ,1.036729623209,1.03672962321,1.036729623209,1.03672962321
      ,1.03672962321,1.03672962321,1.03672962321,1.03672962321
      ,1.036729623209,1.03672962321,1.036729623209,1.03672962321
      ,1.036729623209,1.03672962321,1.03672962321,1.03672962321
      ,1.03672962321,1.03672962321,1.036729623209,1.03672962321
      ,1.036729623209,1.03672962321,1.036729623209,1.03672962321
      ,1.03672962321,1.03672962321,1.03672962321,1.03672962321
      ,1.036729623209,1.03672962321,1.036729623209,1.03672962321
      ,1.036729623209,1.03672962321,1.03672962321,1.03672962321
      ,1.03672962321,1.03672962321,1.036729623209,1.03672962321
      ,1.036729623209,1.03672962321,1.036729623209,1.03672962321
      ,1.03672962321,1.03672962321,1.03672962321,1.03672962321
      ,1.03672962321,1.03672962321,1.036729623209,1.03672962321
      ,1.036729623209,1.03672962321,1.03672962321,1.03672962321
      ,1.03672962321,1.03672962321,1.03672962321,1.03672962321
      ,1.03672962321,1.036729623209,1.03672962321,1.03672962321
      ,1.03672962321,1.03672962321,1.03672962321,1.03672962321
      ,1.03672962321,1.03672962321,1.036729623209,1.03672962321
      ,1.036729623209,1.03672962321,1.03672962321,1.03672962321
      ,1.03672962321)
    ,(1.038346699848,1.038346699848,1.038346699847,1.038346699848
      ,1.038346699847,1.038346699848,1.038346699847,1.038346699848
      ,1.038346699847,1.038346699848,1.038346699848,1.038346699848
      ,1.038346699847,1.038346699848,1.038346699847,1.038346699848
      ,1.038346699847,1.038346699848,1.038346699847,1.038346699848
      ,1.038346699848,1.038346699848,1.038346699847,1.038346699848
      ,1.038346699847,1.038346699848,1.038346699847,1.038346699848
      ,1.038346699847,1.038346699848,1.038346699848,1.038346699848
      ,1.038346699847,1.038346699848,1.038346699847,1.038346699848
      ,1.038346699847,1.038346699848,1.038346699847,1.038346699848
      ,1.038346699848,1.038346699848,1.038346699847,1.038346699848
      ,1.038346699847,1.038346699848,1.038346699847,1.038346699848
      ,1.038346699847,1.038346699848,1.038346699848,1.038346699848
      ,1.038346699847,1.038346699848,1.038346699847,1.038346699848
      ,1.038346699847,1.038346699848,1.038346699847,1.038346699848
      ,1.038346699848,1.038346699847,1.038346699848,1.038346699847
      ,1.038346699848,1.038346699847,1.038346699848,1.038346699847
      ,1.038346699848,1.038346699847,1.038346699848,1.038346699847
      ,1.038346699848,1.038346699847,1.038346699848,1.038346699847
      ,1.038346699848,1.038346699847,1.038346699848,1.038346699847
      ,1.038346699848)
    ,(0.853534330196,0.853534330196,0.853534330196,0.853534330196
      ,0.853534330196,0.853534330196,0.853534330196,0.853534330196
      ,0.853534330196,0.853534330196,0.853534330196,0.853534330196
      ,0.853534330196,0.853534330196,0.853534330196,0.853534330196
      ,0.853534330196,0.853534330196,0.853534330196,0.853534330196
      ,0.853534330196,0.853534330196,0.853534330196,0.853534330196
      ,0.853534330196,0.853534330196,0.853534330196,0.853534330196
      ,0.853534330196,0.853534330196,0.853534330196,0.853534330196
      ,0.853534330196,0.853534330196,0.853534330196,0.853534330196
      ,0.853534330196,0.853534330196,0.853534330196,0.853534330196
      ,0.853534330196,0.853534330196,0.853534330196,0.853534330196
      ,0.853534330196,0.853534330196,0.853534330196,0.853534330196
      ,0.853534330196,0.853534330196,0.853534330196,0.853534330196
      ,0.853534330196,0.853534330196,0.853534330196,0.853534330196
      ,0.853534330196,0.853534330196,0.853534330196,0.853534330196
      ,0.853534330196,0.853534330196,0.853534330196,0.853534330196
      ,0.853534330196,0.853534330196,0.853534330196,0.853534330196
      ,0.853534330196,0.853534330196,0.853534330196,0.853534330196
      ,0.853534330196,0.853534330196,0.853534330196,0.853534330196
      ,0.853534330196,0.853534330196,0.853534330196,0.853534330196
      ,0.853534330196)
    ,(1.038346699848,1.038346699848,1.038346699847,1.038346699848
      ,1.038346699847,1.038346699848,1.038346699847,1.038346699848
      ,1.038346699847,1.038346699848,1.038346699848,1.038346699848
      ,1.038346699847,1.038346699848,1.038346699847,1.038346699848
      ,1.038346699847,1.038346699848,1.038346699847,1.038346699848
      ,1.038346699848,1.038346699848,1.038346699847,1.038346699848
      ,1.038346699847,1.038346699848,1.038346699847,1.038346699848
      ,1.038346699847,1.038346699848,1.038346699848,1.038346699848
      ,1.038346699847,1.038346699848,1.038346699847,1.038346699848
      ,1.038346699847,1.038346699848,1.038346699847,1.038346699848
      ,1.038346699848,1.038346699848,1.038346699847,1.038346699848
      ,1.038346699847,1.038346699848,1.038346699847,1.038346699848
      ,1.038346699847,1.038346699848,1.038346699848,1.038346699848
      ,1.038346699847,1.038346699848,1.038346699847,1.038346699848
      ,1.038346699847,1.038346699848,1.038346699847,1.038346699848
      ,1.038346699848,1.038346699848,1.038346699848,1.038346699847
      ,1.038346699848,1.038346699847,1.038346699848,1.038346699847
      ,1.038346699848,1.038346699847,1.038346699848,1.038346699848
      ,1.038346699847,1.038346699848,1.038346699847,1.038346699848
      ,1.038346699848,1.038346699848,1.038346699848,1.038346699848
      ,1.038346699848)
    ,(1.03672962321,1.03672962321,1.036729623209,1.03672962321
      ,1.036729623209,1.03672962321,1.036729623209,1.03672962321
      ,1.03672962321,1.03672962321,1.03672962321,1.03672962321
      ,1.036729623209,1.03672962321,1.036729623209,1.03672962321
      ,1.036729623209,1.03672962321,1.03672962321,1.03672962321
      ,1.03672962321,1.03672962321,1.036729623209,1.03672962321
      ,1.036729623209,1.03672962321,1.036729623209,1.03672962321
      ,1.03672962321,1.03672962321,1.03672962321,1.03672962321
      ,1.036729623209,1.03672962321,1.036729623209,1.03672962321
      ,1.036729623209,1.03672962321,1.03672962321,1.03672962321
      ,1.03672962321,1.03672962321,1.036729623209,1.03672962321
      ,1.036729623209,1.03672962321,1.036729623209,1.03672962321
      ,1.03672962321,1.03672962321,1.03672962321,1.03672962321
      ,1.03672962321,1.03672962321,1.036729623209,1.03672962321
      ,1.036729623209,1.03672962321,1.03672962321,1.03672962321
      ,1.03672962321,1.03672962321,1.03672962321,1.036729623209
      ,1.03672962321,1.036729623209,1.03672962321,1.036729623209
      ,1.03672962321,1.03672962321,1.03672962321,1.03672962321
      ,1.03672962321,1.03672962321,1.03672962321,1.03672962321
      ,1.03672962321,1.03672962321,1.03672962321,1.03672962321
      ,1.03672962321)
    ,(1.669078461068,1.669078461068,1.669078461068,1.669078461069
      ,1.669078461068,1.669078461069,1.669078461068,1.669078461068
      ,1.669078461068,1.669078461068,1.669078461068,1.669078461068
      ,1.669078461068,1.669078461069,1.669078461068,1.669078461069
      ,1.669078461068,1.669078461068,1.669078461068,1.669078461068
      ,1.669078461068,1.669078461068,1.669078461068,1.669078461069
      ,1.669078461068,1.669078461069,1.669078461068,1.669078461068
      ,1.669078461068,1.669078461068,1.669078461068,1.669078461068
      ,1.669078461068,1.669078461069,1.669078461068,1.669078461069
      ,1.669078461068,1.669078461068,1.669078461068,1.669078461068
      ,1.669078461068,1.669078461068,1.669078461068,1.669078461069
      ,1.669078461068,1.669078461069,1.669078461068,1.669078461068
      ,1.669078461068,1.669078461068,1.669078461068,1.669078461068
      ,1.669078461068,1.669078461068,1.669078461068,1.669078461068
      ,1.669078461068,1.669078461068,1.669078461068,1.669078461068
      ,1.669078461068,1.669078461068,1.669078461068,1.669078461068
      ,1.669078461068,1.669078461068,1.669078461068,1.669078461068
      ,1.669078461068,1.669078461068,1.669078461068,1.669078461068
      ,1.669078461068,1.669078461068,1.669078461068,1.669078461068
      ,1.669078461068,1.669078461068,1.669078461068,1.669078461068
,1.669078461068))) REPRESENTATION_ITEM('') SURFACE() );
#111 = CARTESIAN_POINT('',(2.22044604925E-16,-1.908195823574E-17,-2.));
#112 = CARTESIAN_POINT('',(0.119381251567,1.099550262443,-1.999999985508
    ));
#113 = CARTESIAN_POINT('',(0.23873450533,2.199354697457,-1.328446076256)
  );
#114 = CARTESIAN_POINT('',(0.358153364471,2.835764037164,
    1.588914304727E-02));
#115 = CARTESIAN_POINT('',(0.477475821636,2.555749679318,1.664513947494)
  );
#116 = CARTESIAN_POINT('',(0.596881053149,1.206234686207,2.912109257436)
  );
#117 = CARTESIAN_POINT('',(0.716266083094,-0.630197552584,2.984176552163
    ));
#118 = CARTESIAN_POINT('',(0.835606311602,-1.993953211806,2.016424037175
    ));
#119 = CARTESIAN_POINT('',(0.955011506004,-2.494531270909,0.615825219719
    ));
#120 = CARTESIAN_POINT('',(1.074373822966,-2.191713364252,
    -0.636713601198));
#121 = CARTESIAN_POINT('',(1.19375,-1.414213562373,-1.414213562373));
#122 = CARTESIAN_POINT('',(1.313131251568,-0.636714105297,
    -2.191712998955));
#123 = CARTESIAN_POINT('',(1.432484505328,0.615825391845,-2.494531849767
    ));
#124 = CARTESIAN_POINT('',(1.551903364473,2.016423301319,-1.993952659729
    ));
#125 = CARTESIAN_POINT('',(1.671225821634,2.984177028914,-0.630198829606
    ));
#126 = CARTESIAN_POINT('',(1.790631053151,2.912108929809,1.206235477168)
  );
#127 = CARTESIAN_POINT('',(1.910016083092,1.664514513372,2.555748439213)
  );
#128 = CARTESIAN_POINT('',(2.029356311603,1.588927299777E-02,
    2.83576494787));
#129 = CARTESIAN_POINT('',(2.148761506004,-1.328445788652,2.199354166431
    ));
#130 = CARTESIAN_POINT('',(2.268123822966,-1.999999887361,1.099550877199
    ));
#131 = CARTESIAN_POINT('',(2.3875,-2.,6.343536806952E-15));
#132 = CARTESIAN_POINT('',(2.506881251568,-1.999999985508,
    -1.099550262443));
#133 = CARTESIAN_POINT('',(2.626234505328,-1.328446076256,
    -2.199354697457));
#134 = CARTESIAN_POINT('',(2.745653364474,1.588914304625E-02,
    -2.835764037165));
#135 = CARTESIAN_POINT('',(2.864975821633,1.664513947495,-2.555749679316
    ));
#136 = CARTESIAN_POINT('',(2.984381053151,2.912109257436,-1.206234686209
    ));
#137 = CARTESIAN_POINT('',(3.103766083093,2.984176552162,0.630197552586)
  );
#138 = CARTESIAN_POINT('',(3.223106311602,2.016424037175,1.993953211805)
  );
#139 = CARTESIAN_POINT('',(3.342511506005,0.615825219719,2.494531270909)
  );
#140 = CARTESIAN_POINT('',(3.461873822965,-0.636713601198,2.191713364252
    ));
#141 = CARTESIAN_POINT('',(3.58125,-1.414213562373,1.414213562373));
#142 = CARTESIAN_POINT('',(3.700631251567,-2.191712998955,0.636714105297
    ));
#143 = CARTESIAN_POINT('',(3.819984505329,-2.494531849767,
    -0.615825391845));
#144 = CARTESIAN_POINT('',(3.939403364473,-1.993952659729,
    -2.016423301319));
#145 = CARTESIAN_POINT('',(4.058725821634,-0.630198829606,
    -2.984177028914));
#146 = CARTESIAN_POINT('',(4.178131053151,1.206235477168,-2.912108929809
    ));
#147 = CARTESIAN_POINT('',(4.297516083093,2.555748439213,-1.664514513373
    ));
#148 = CARTESIAN_POINT('',(4.416856311602,2.83576494787,
    -1.588927299711E-02));
#149 = CARTESIAN_POINT('',(4.536261506004,2.199354166431,1.328445788652)
  );
#150 = CARTESIAN_POINT('',(4.655623822966,1.099550877199,1.999999887361)
  );
#151 = CARTESIAN_POINT('',(4.775,2.219838896034E-14,2.));
#152 = CARTESIAN_POINT('',(4.894381251567,-1.099550262443,1.999999985508
    ));
#153 = CARTESIAN_POINT('',(5.013734505329,-2.199354697457,1.328446076256
    ));
#154 = CARTESIAN_POINT('',(5.133153364472,-2.835764037165,
    -1.588914304718E-02));
#155 = CARTESIAN_POINT('',(5.252475821636,-2.555749679318,
    -1.664513947494));
#156 = CARTESIAN_POINT('',(5.371881053148,-1.206234686208,
    -2.912109257437));
#157 = CARTESIAN_POINT('',(5.491266083095,0.630197552584,-2.984176552162
    ));
#158 = CARTESIAN_POINT('',(5.6106063116,1.993953211806,-2.016424037175)
  );
#159 = CARTESIAN_POINT('',(5.730011506005,2.494531270908,-0.615825219719
    ));
#160 = CARTESIAN_POINT('',(5.849373822966,2.191713364253,0.636713601198)
  );
#161 = CARTESIAN_POINT('',(5.96875,1.414213562373,1.414213562373));
#162 = CARTESIAN_POINT('',(6.088131251567,0.636714105297,2.191712998955)
  );
#163 = CARTESIAN_POINT('',(6.207484505328,-0.615825391845,2.494531849767
    ));
#164 = CARTESIAN_POINT('',(6.326903364476,-2.01642330132,1.993952659729)
  );
#165 = CARTESIAN_POINT('',(6.446225821629,-2.984177028912,0.630198829607
    ));
#166 = CARTESIAN_POINT('',(6.565631053156,-2.912108929811,
    -1.206235477169));
#167 = CARTESIAN_POINT('',(6.68501608309,-1.664514513371,-2.555748439211
    ));
#168 = CARTESIAN_POINT('',(6.804356311603,-1.58892729978E-02,
    -2.835764947871));
#169 = CARTESIAN_POINT('',(6.923761506004,1.328445788652,-2.19935416643)
  );
#170 = CARTESIAN_POINT('',(7.043123822966,1.999999887361,-1.099550877199
    ));
#171 = CARTESIAN_POINT('',(7.1625,2.,2.255556852404E-14));
#172 = CARTESIAN_POINT('',(7.281881251568,1.999999985508,1.099550262443)
  );
#173 = CARTESIAN_POINT('',(7.401234505327,1.328446076256,2.199354697457)
  );
#174 = CARTESIAN_POINT('',(7.520653364476,-1.588914304684E-02,
    2.835764037165));
#175 = CARTESIAN_POINT('',(7.63997582163,-1.664513947494,2.555749679316)
  );
#176 = CARTESIAN_POINT('',(7.759381053155,-2.912109257438,1.206234686209
    ));
#177 = CARTESIAN_POINT('',(7.878766083089,-2.984176552161,
    -0.630197552585));
#178 = CARTESIAN_POINT('',(7.998106311605,-2.016424037176,
    -1.993953211806));
#179 = CARTESIAN_POINT('',(8.117511506002,-0.615825219719,
    -2.494531270908));
#180 = CARTESIAN_POINT('',(8.236873822967,0.636713601198,-2.191713364252
    ));
#181 = CARTESIAN_POINT('',(8.356249999999,1.414213562373,-1.414213562373
    ));
#182 = CARTESIAN_POINT('',(8.475631084036,2.191713019449,-0.636714105298
    ));
#183 = CARTESIAN_POINT('',(8.594985223473,2.494531761918,0.615825391848)
  );
#184 = CARTESIAN_POINT('',(8.714401509782,1.99395288661,2.016423301313)
  );
#185 = CARTESIAN_POINT('',(8.83372933366,0.630198399988,2.984177028925)
  );
#186 = CARTESIAN_POINT('',(8.95312583766,-1.206234839168,2.912108929792)
  );
#187 = CARTESIAN_POINT('',(9.072522341685,-2.555749204814,1.664514513394
    ));
#188 = CARTESIAN_POINT('',(9.191850165545,-2.835764196034,
    1.588927297522E-02));
#189 = CARTESIAN_POINT('',(9.311266451863,-2.199354771449,
    -1.328445788634));
#190 = CARTESIAN_POINT('',(9.430620591297,-1.099550481874,
    -1.999999887373));
#191 = CARTESIAN_POINT('',(9.550001675335,-2.049410065463E-07,
    -1.999999999994));
#192 = CARTESIAN_POINT('',(0.373847192003,-1.936818760928E-15,-2.));
#193 = CARTESIAN_POINT('',(0.493228443569,1.099549694123,-1.999989679791
    ));
#194 = CARTESIAN_POINT('',(0.612581697279,2.199355576174,-1.328470783569
    ));
#195 = CARTESIAN_POINT('',(0.732000556688,2.835751069785,
    1.59314796685E-02));
#196 = CARTESIAN_POINT('',(0.851323013141,2.555772142855,1.6644699979));
#197 = CARTESIAN_POINT('',(0.970728245889,1.206197394478,2.912130996102)
  );
#198 = CARTESIAN_POINT('',(1.090113274349,-0.630157067357,2.984174402364
    ));
#199 = CARTESIAN_POINT('',(1.20945350411,-1.993982321736,2.016410766612)
  );
#200 = CARTESIAN_POINT('',(1.328858697786,-2.494515517567,0.615834207661
    ));
#201 = CARTESIAN_POINT('',(1.448221015015,-2.191714206095,
    -0.636715525123));
#202 = CARTESIAN_POINT('',(1.567597192003,-1.414213562373,
    -1.414213562373));
#203 = CARTESIAN_POINT('',(1.68697844357,-0.636707219916,-2.191705309849
    ));
#204 = CARTESIAN_POINT('',(1.806331697278,0.615808542481,-2.494549941824
    ));
#205 = CARTESIAN_POINT('',(1.925750556689,2.016444068514,-1.993913553895
    ));
#206 = CARTESIAN_POINT('',(2.045073013139,2.984161835971,-0.630245790781
    ));
#207 = CARTESIAN_POINT('',(2.164478245891,2.912097932137,1.206277217958)
  );
#208 = CARTESIAN_POINT('',(2.283863274348,1.664541620611,2.555718291699)
  );
#209 = CARTESIAN_POINT('',(2.40320350411,1.585930546463E-02,
    2.835776147993));
#210 = CARTESIAN_POINT('',(2.522608697786,-1.328428293923,2.199349382571
    ));
#211 = CARTESIAN_POINT('',(2.641971015014,-2.000001843054,1.099550112051
    ));
#212 = CARTESIAN_POINT('',(2.761347192003,-2.,-3.302787519122E-14));
#213 = CARTESIAN_POINT('',(2.88072844357,-1.99998967979,-1.099549694123)
  );
#214 = CARTESIAN_POINT('',(3.000081697277,-1.328470783571,
    -2.199355576173));
#215 = CARTESIAN_POINT('',(3.11950055669,1.593147967141E-02,
    -2.835751069789));
#216 = CARTESIAN_POINT('',(3.238823013139,1.664469997899,-2.555772142848
    ));
#217 = CARTESIAN_POINT('',(3.35822824589,2.9121309961,-1.206197394485));
#218 = CARTESIAN_POINT('',(3.477613274349,2.984174402367,0.630157067361)
  );
#219 = CARTESIAN_POINT('',(3.596953504108,2.016410766609,1.993982321735)
  );
#220 = CARTESIAN_POINT('',(3.716358697787,0.615834207663,2.494515517566)
  );
#221 = CARTESIAN_POINT('',(3.835721015014,-0.636715525124,2.191714206096
    ));
#222 = CARTESIAN_POINT('',(3.955097192003,-1.414213562373,1.414213562373
    ));
#223 = CARTESIAN_POINT('',(4.07447844357,-2.191705309849,0.636707219917)
  );
#224 = CARTESIAN_POINT('',(4.193831697278,-2.494549941822,
    -0.615808542483));
#225 = CARTESIAN_POINT('',(4.313250556689,-1.993913553895,
    -2.016444068511));
#226 = CARTESIAN_POINT('',(4.432573013139,-0.630245790781,
    -2.984161835976));
#227 = CARTESIAN_POINT('',(4.551978245891,1.206277217959,-2.912097932132
    ));
#228 = CARTESIAN_POINT('',(4.671363274349,2.555718291698,-1.664541620615
    ));
#229 = CARTESIAN_POINT('',(4.790703504109,2.835776147993,
    -1.585930546163E-02));
#230 = CARTESIAN_POINT('',(4.910108697787,2.199349382571,1.328428293921)
  );
#231 = CARTESIAN_POINT('',(5.029471015014,1.099550112051,2.000001843055)
  );
#232 = CARTESIAN_POINT('',(5.148847192003,1.490127465864E-15,2.));
#233 = CARTESIAN_POINT('',(5.26822844357,-1.099549694123,1.999989679791)
  );
#234 = CARTESIAN_POINT('',(5.387581697279,-2.199355576174,1.328470783569
    ));
#235 = CARTESIAN_POINT('',(5.507000556688,-2.835751069785,
    -1.593147966885E-02));
#236 = CARTESIAN_POINT('',(5.626323013141,-2.555772142855,-1.6644699979)
  );
#237 = CARTESIAN_POINT('',(5.745728245888,-1.206197394477,
    -2.912130996102));
#238 = CARTESIAN_POINT('',(5.865113274351,0.630157067355,-2.984174402364
    ));
#239 = CARTESIAN_POINT('',(5.984453504107,1.993982321738,-2.016410766612
    ));
#240 = CARTESIAN_POINT('',(6.103858697787,2.494515517566,-0.615834207662
    ));
#241 = CARTESIAN_POINT('',(6.223221015014,2.191714206095,0.636715525123)
  );
#242 = CARTESIAN_POINT('',(6.342597192003,1.414213562373,1.414213562373)
  );
#243 = CARTESIAN_POINT('',(6.46197844357,0.636707219917,2.191705309849)
  );
#244 = CARTESIAN_POINT('',(6.581331697277,-0.615808542482,2.494549941823
    ));
#245 = CARTESIAN_POINT('',(6.700750556692,-2.016444068514,1.993913553894
    ));
#246 = CARTESIAN_POINT('',(6.820073013135,-2.984161835973,0.630245790782
    ));
#247 = CARTESIAN_POINT('',(6.939478245894,-2.912097932135,
    -1.206277217959));
#248 = CARTESIAN_POINT('',(7.058863274346,-1.664541620614,
    -2.555718291699));
#249 = CARTESIAN_POINT('',(7.17820350411,-1.585930546169E-02,
    -2.835776147993));
#250 = CARTESIAN_POINT('',(7.297608697786,1.328428293921,-2.199349382571
    ));
#251 = CARTESIAN_POINT('',(7.416971015014,2.000001843054,-1.099550112051
    ));
#252 = CARTESIAN_POINT('',(7.536347192003,2.000000000001,
    8.177196111259E-14));
#253 = CARTESIAN_POINT('',(7.655728443571,1.999989679789,1.099549694123)
  );
#254 = CARTESIAN_POINT('',(7.775081697276,1.328470783572,2.199355576172)
  );
#255 = CARTESIAN_POINT('',(7.894500556692,-1.593147967408E-02,
    2.835751069791));
#256 = CARTESIAN_POINT('',(8.013823013135,-1.664469997895,2.555772142845
    ));
#257 = CARTESIAN_POINT('',(8.133228245895,-2.912130996105,1.206197394489
    ));
#258 = CARTESIAN_POINT('',(8.252613274345,-2.984174402363,
    -0.630157067365));
#259 = CARTESIAN_POINT('',(8.371953504112,-2.016410766612,
    -1.993982321733));
#260 = CARTESIAN_POINT('',(8.491358697785,-0.615834207661,
    -2.494515517568));
#261 = CARTESIAN_POINT('',(8.610721015015,0.636715525122,-2.191714206094
    ));
#262 = CARTESIAN_POINT('',(8.730097192003,1.414213562374,-1.414213562374
    ));
#263 = CARTESIAN_POINT('',(8.84947827604,2.19170533034,-0.636707498279)
  );
#264 = CARTESIAN_POINT('',(8.968832415418,2.494549853979,0.615809735713)
  );
#265 = CARTESIAN_POINT('',(9.088248702009,1.993913780771,2.016440986859)
  );
#266 = CARTESIAN_POINT('',(9.207576525144,0.630245361162,2.984167671366)
  );
#267 = CARTESIAN_POINT('',(9.32697303043,-1.206276579953,2.912089266354)
  );
#268 = CARTESIAN_POINT('',(9.446369532904,-2.555719057306,1.66455201956)
  );
#269 = CARTESIAN_POINT('',(9.565697358089,-2.835775396155,
    1.584909349789E-02));
#270 = CARTESIAN_POINT('',(9.685113643616,-2.199349987588,
    -1.328420076142));
#271 = CARTESIAN_POINT('',(9.804467783365,-1.099549716729,
    -2.000007212625));
#272 = CARTESIAN_POINT('',(9.923848867328,-2.049395495356E-07,
    -1.999997216352));
#273 = CARTESIAN_POINT('',(0.42752528623,5.412337245048E-16,
    -1.537726657127));
#274 = CARTESIAN_POINT('',(0.54689369365,0.845416291922,-1.537714886967)
  );
#275 = CARTESIAN_POINT('',(0.666291626045,1.69095468329,-1.021429021982)
  );
#276 = CARTESIAN_POINT('',(0.785620374771,2.180393730974,
    1.230017342639E-02));
#277 = CARTESIAN_POINT('',(0.905050782911,1.964947808239,1.279652855251)
  );
#278 = CARTESIAN_POINT('',(1.024393903734,0.927438232922,2.239160597542)
  );
#279 = CARTESIAN_POINT('',(1.143758324979,-0.48447805284,2.294294550065)
  );
#280 = CARTESIAN_POINT('',(1.263169994623,-1.533151084979,1.550429027878
    ));
#281 = CARTESIAN_POINT('',(1.382513152342,-1.917906816594,0.473455863904
    ));
#282 = CARTESIAN_POINT('',(1.501901527521,-1.685137587671,
    -0.489539636928));
#283 = CARTESIAN_POINT('',(1.62127528623,-1.087336946866,-1.087336946866
    ));
#284 = CARTESIAN_POINT('',(1.740643693649,-0.489529031161,
    -1.685128217048));
#285 = CARTESIAN_POINT('',(1.860041626047,0.473426135287,-1.917944911179
    ));
#286 = CARTESIAN_POINT('',(1.979370374768,1.550468728871,-1.533073656787
    ));
#287 = CARTESIAN_POINT('',(2.098800782914,2.294279131392,-0.48457670837)
  );
#288 = CARTESIAN_POINT('',(2.218143903732,2.239123506322,0.927527779056)
  );
#289 = CARTESIAN_POINT('',(2.337508324979,1.27973351789,1.96488895089));
#290 = CARTESIAN_POINT('',(2.456919994623,1.221735058828E-02,
    2.180420408133));
#291 = CARTESIAN_POINT('',(2.576263152341,-1.021381063738,1.690948767656
    ));
#292 = CARTESIAN_POINT('',(2.695651527521,-1.537729012407,0.845415418543
    ));
#293 = CARTESIAN_POINT('',(2.815025286231,-1.537726657127,
    -5.122957332946E-14));
#294 = CARTESIAN_POINT('',(2.934393693649,-1.537714886965,
    -0.845416291922));
#295 = CARTESIAN_POINT('',(3.053791626048,-1.021429021985,
    -1.690954683289));
#296 = CARTESIAN_POINT('',(3.173120374767,1.230017343054E-02,
    -2.180393730976));
#297 = CARTESIAN_POINT('',(3.292550782915,1.279652855248,-1.964947808235
    ));
#298 = CARTESIAN_POINT('',(3.411893903732,2.239160597542,-0.927438232926
    ));
#299 = CARTESIAN_POINT('',(3.531258324978,2.294294550067,0.484478052841)
  );
#300 = CARTESIAN_POINT('',(3.650669994625,1.550429027875,1.533151084981)
  );
#301 = CARTESIAN_POINT('',(3.77001315234,0.473455863906,1.917906816592)
  );
#302 = CARTESIAN_POINT('',(3.889401527522,-0.489539636929,1.685137587673
    ));
#303 = CARTESIAN_POINT('',(4.00877528623,-1.087336946866,1.087336946866)
  );
#304 = CARTESIAN_POINT('',(4.12814369365,-1.685128217049,0.489529031162)
  );
#305 = CARTESIAN_POINT('',(4.247541626046,-1.917944911178,
    -0.473426135289));
#306 = CARTESIAN_POINT('',(4.36687037477,-1.533073656788,-1.550468728868
    ));
#307 = CARTESIAN_POINT('',(4.486300782912,-0.48457670837,-2.294279131397
    ));
#308 = CARTESIAN_POINT('',(4.605643903734,0.927527779056,-2.239123506318
    ));
#309 = CARTESIAN_POINT('',(4.725008324978,1.96488895089,-1.279733517893)
  );
#310 = CARTESIAN_POINT('',(4.844419994624,2.180420408133,
    -1.22173505857E-02));
#311 = CARTESIAN_POINT('',(4.96376315234,1.690948767656,1.021381063736)
  );
#312 = CARTESIAN_POINT('',(5.083151527521,0.845415418543,1.537729012408)
  );
#313 = CARTESIAN_POINT('',(5.20252528623,-3.07870048899E-14,
    1.537726657127));
#314 = CARTESIAN_POINT('',(5.32189369365,-0.845416291922,1.537714886966)
  );
#315 = CARTESIAN_POINT('',(5.441291626045,-1.690954683289,1.021429021982
    ));
#316 = CARTESIAN_POINT('',(5.56062037477,-2.180393730974,
    -1.230017342713E-02));
#317 = CARTESIAN_POINT('',(5.680050782912,-1.964947808239,
    -1.279652855251));
#318 = CARTESIAN_POINT('',(5.799393903734,-0.927438232921,
    -2.239160597543));
#319 = CARTESIAN_POINT('',(5.918758324978,0.484478052838,-2.294294550065
    ));
#320 = CARTESIAN_POINT('',(6.038169994623,1.533151084982,-1.550429027877
    ));
#321 = CARTESIAN_POINT('',(6.157513152341,1.917906816592,-0.473455863905
    ));
#322 = CARTESIAN_POINT('',(6.276901527521,1.685137587672,0.489539636929)
  );
#323 = CARTESIAN_POINT('',(6.39627528623,1.087336946866,1.087336946866)
  );
#324 = CARTESIAN_POINT('',(6.51564369365,0.489529031162,1.685128217049)
  );
#325 = CARTESIAN_POINT('',(6.635041626046,-0.473426135287,1.917944911178
    ));
#326 = CARTESIAN_POINT('',(6.754370374768,-1.550468728871,1.533073656787
    ));
#327 = CARTESIAN_POINT('',(6.873800782914,-2.294279131393,0.48457670837)
  );
#328 = CARTESIAN_POINT('',(6.993143903733,-2.23912350632,-0.927527779054
    ));
#329 = CARTESIAN_POINT('',(7.112508324977,-1.279733517893,
    -1.964888950893));
#330 = CARTESIAN_POINT('',(7.231919994625,-1.221735058529E-02,
    -2.180420408131));
#331 = CARTESIAN_POINT('',(7.35126315234,1.021381063736,-1.690948767657)
  );
#332 = CARTESIAN_POINT('',(7.470651527521,1.537729012407,-0.845415418543
    ));
#333 = CARTESIAN_POINT('',(7.590025286231,1.537726657127,
    5.166312103524E-14));
#334 = CARTESIAN_POINT('',(7.709393693649,1.537714886964,0.845416291922)
  );
#335 = CARTESIAN_POINT('',(7.828791626048,1.021429021986,1.690954683287)
  );
#336 = CARTESIAN_POINT('',(7.948120374766,-1.230017343263E-02,
    2.180393730979));
#337 = CARTESIAN_POINT('',(8.067550782917,-1.279652855246,1.96494780823)
  );
#338 = CARTESIAN_POINT('',(8.18689390373,-2.239160597545,0.927438232932)
  );
#339 = CARTESIAN_POINT('',(8.306258324979,-2.294294550065,
    -0.484478052846));
#340 = CARTESIAN_POINT('',(8.425669994623,-1.550429027876,
    -1.533151084977));
#341 = CARTESIAN_POINT('',(8.545013152341,-0.473455863904,
    -1.917906816595));
#342 = CARTESIAN_POINT('',(8.66440152752,0.489539636928,-1.685137587671)
  );
#343 = CARTESIAN_POINT('',(8.783775286231,1.087336946867,-1.087336946867
    ));
#344 = CARTESIAN_POINT('',(8.90314387032,1.685128195434,-0.48952934949)
  );
#345 = CARTESIAN_POINT('',(9.022540868725,1.917945003825,0.473427499839)
  );
#346 = CARTESIAN_POINT('',(9.14187233064,1.533073417526,1.550465204759)
  );
#347 = CARTESIAN_POINT('',(9.261297079289,0.484577161426,2.294285804621)
  );
#348 = CARTESIAN_POINT('',(9.380649403759,-0.927528451855,2.239113596322
    ));
#349 = CARTESIAN_POINT('',(9.500001724941,-1.96488814353,1.279745409901)
  );
#350 = CARTESIAN_POINT('',(9.619426475986,-2.18042120098,
    1.220567240663E-02));
#351 = CARTESIAN_POINT('',(9.738757936655,-1.690948129633,
    -1.021371666064));
#352 = CARTESIAN_POINT('',(9.858154935496,-0.845415835435,-1.53773515293
    ));
#353 = CARTESIAN_POINT('',(9.977523519497,2.161218338702E-07,
    -1.537723473808));
#354 = CARTESIAN_POINT('',(1.904748435952E-15,3.460773334574E-16,
    -1.156448692773));
#355 = CARTESIAN_POINT('',(0.119357813711,0.63581057659,-1.156448732613)
  );
#356 = CARTESIAN_POINT('',(0.238792596661,1.271630114525,-0.768153176194
    ));
#357 = CARTESIAN_POINT('',(0.358047022751,1.639878577242,
    9.251682830522E-03));
#358 = CARTESIAN_POINT('',(0.477566469151,1.47761405185,0.96231537695));
#359 = CARTESIAN_POINT('',(0.596858359183,0.697567807621,1.684074586692)
  );
#360 = CARTESIAN_POINT('',(0.716205785697,-0.364374698053,1.725291955367
    ));
#361 = CARTESIAN_POINT('',(0.83567637659,-1.153025816892,1.166109167005)
  );
#362 = CARTESIAN_POINT('',(0.95496836865,-1.442346188372,0.356012430459)
  );
#363 = CARTESIAN_POINT('',(1.074378235804,-1.267317706936,
    -0.368148156494));
#364 = CARTESIAN_POINT('',(1.193750000001,-0.817732712754,
    -0.817732712754));
#365 = CARTESIAN_POINT('',(1.313107813709,-0.368146770668,
    -1.267318711182));
#366 = CARTESIAN_POINT('',(1.432542596665,0.356011957266,-1.442344597019
    ));
#367 = CARTESIAN_POINT('',(1.551797022744,1.166111189955,-1.153027334622
    ));
#368 = CARTESIAN_POINT('',(1.671316469158,1.725290644724,-0.364371187361
    ));
#369 = CARTESIAN_POINT('',(1.79060835918,1.684075487377,0.697565633171)
  );
#370 = CARTESIAN_POINT('',(1.909955785698,0.962313821282,1.477617461048)
  );
#371 = CARTESIAN_POINT('',(2.029426376592,9.251325584328E-03,
    1.639876073603));
#372 = CARTESIAN_POINT('',(2.148718368649,-0.768153966852,1.271631574379
    ));
#373 = CARTESIAN_POINT('',(2.268128235804,-1.15644900243,0.635808886554)
  );
#374 = CARTESIAN_POINT('',(2.387500000001,-1.156448692773,
    -1.491723411462E-14));
#375 = CARTESIAN_POINT('',(2.506857813709,-1.156448732613,-0.63581057659
    ));
#376 = CARTESIAN_POINT('',(2.626292596667,-0.768153176194,
    -1.271630114525));
#377 = CARTESIAN_POINT('',(2.745547022742,9.251682830108E-03,
    -1.639878577241));
#378 = CARTESIAN_POINT('',(2.865066469159,0.962315376949,-1.477614051852
    ));
#379 = CARTESIAN_POINT('',(2.984358359181,1.684074586694,-0.697567807619
    ));
#380 = CARTESIAN_POINT('',(3.103705785694,1.725291955364,0.36437469805)
  );
#381 = CARTESIAN_POINT('',(3.223176376597,1.166109167007,1.153025816895)
  );
#382 = CARTESIAN_POINT('',(3.342468368645,0.356012430457,1.442346188371)
  );
#383 = CARTESIAN_POINT('',(3.461878235806,-0.368148156494,1.267317706936
    ));
#384 = CARTESIAN_POINT('',(3.58125,-0.817732712754,0.817732712754));
#385 = CARTESIAN_POINT('',(3.700607813711,-1.267318711182,0.368146770668
    ));
#386 = CARTESIAN_POINT('',(3.820042596662,-1.442344597019,
    -0.356011957265));
#387 = CARTESIAN_POINT('',(3.939297022748,-1.153027334623,
    -1.166111189956));
#388 = CARTESIAN_POINT('',(4.058816469154,-0.36437118736,-1.725290644722
    ));
#389 = CARTESIAN_POINT('',(4.178108359183,0.69756563317,-1.684075487379)
  );
#390 = CARTESIAN_POINT('',(4.297455785695,1.47761746105,-0.962313821281)
  );
#391 = CARTESIAN_POINT('',(4.416926376594,1.639876073603,
    -9.251325584628E-03));
#392 = CARTESIAN_POINT('',(4.536218368647,1.271631574379,0.768153966852)
  );
#393 = CARTESIAN_POINT('',(4.655628235806,0.635808886554,1.15644900243)
  );
#394 = CARTESIAN_POINT('',(4.775,-3.145747551336E-14,1.156448692773));
#395 = CARTESIAN_POINT('',(4.894357813711,-0.63581057659,1.156448732613)
  );
#396 = CARTESIAN_POINT('',(5.013792596662,-1.271630114524,0.768153176195
    ));
#397 = CARTESIAN_POINT('',(5.13304702275,-1.639878577243,
    -9.251682830931E-03));
#398 = CARTESIAN_POINT('',(5.252566469151,-1.477614051849,
    -0.962315376949));
#399 = CARTESIAN_POINT('',(5.371858359186,-0.697567807622,
    -1.684074586694));
#400 = CARTESIAN_POINT('',(5.491205785693,0.364374698053,-1.725291955365
    ));
#401 = CARTESIAN_POINT('',(5.610676376595,1.153025816892,-1.166109167006
    ));
#402 = CARTESIAN_POINT('',(5.729968368647,1.442346188371,-0.356012430458
    ));
#403 = CARTESIAN_POINT('',(5.849378235805,1.267317706936,0.368148156494)
  );
#404 = CARTESIAN_POINT('',(5.96875,0.817732712754,0.817732712754));
#405 = CARTESIAN_POINT('',(6.08810781371,0.368146770668,1.267318711183)
  );
#406 = CARTESIAN_POINT('',(6.207542596665,-0.356011957264,1.442344597018
    ));
#407 = CARTESIAN_POINT('',(6.326797022743,-1.166111189958,1.153027334624
    ));
#408 = CARTESIAN_POINT('',(6.446316469161,-1.72529064472,0.364371187358)
  );
#409 = CARTESIAN_POINT('',(6.565608359178,-1.684075487381,
    -0.697565633168));
#410 = CARTESIAN_POINT('',(6.684955785696,-0.96231382128,-1.477617461051
    ));
#411 = CARTESIAN_POINT('',(6.804426376595,-9.251325584844E-03,
    -1.639876073602));
#412 = CARTESIAN_POINT('',(6.923718368647,0.768153966852,-1.271631574379
    ));
#413 = CARTESIAN_POINT('',(7.043128235805,1.15644900243,-0.635808886554)
  );
#414 = CARTESIAN_POINT('',(7.162500000001,1.156448692773,
    -5.285633042362E-14));
#415 = CARTESIAN_POINT('',(7.281857813708,1.156448732613,0.635810576591)
  );
#416 = CARTESIAN_POINT('',(7.401292596669,0.768153176194,1.271630114524)
  );
#417 = CARTESIAN_POINT('',(7.520547022737,-9.251682829418E-03,
    1.639878577243));
#418 = CARTESIAN_POINT('',(7.640066469167,-0.96231537695,1.47761405185)
  );
#419 = CARTESIAN_POINT('',(7.759358359172,-1.684074586693,0.69756780762)
  );
#420 = CARTESIAN_POINT('',(7.878705785702,-1.725291955365,-0.36437469805
    ));
#421 = CARTESIAN_POINT('',(7.99817637659,-1.166109167006,-1.153025816895
    ));
#422 = CARTESIAN_POINT('',(8.117468368651,-0.356012430458,
    -1.442346188371));
#423 = CARTESIAN_POINT('',(8.236878235803,0.368148156494,-1.267317706936
    ));
#424 = CARTESIAN_POINT('',(8.356250000002,0.817732712754,-0.817732712754
    ));
#425 = CARTESIAN_POINT('',(8.475608274272,1.267318654843,-0.368146770666
    ));
#426 = CARTESIAN_POINT('',(8.595040622405,1.442344838527,0.356011957257)
  );
#427 = CARTESIAN_POINT('',(8.714302121503,1.153026710901,1.166111189976)
  );
#428 = CARTESIAN_POINT('',(8.833806814188,0.364372368436,1.725290644686)
  );
#429 = CARTESIAN_POINT('',(8.953122697181,-0.697567387113,1.684075487432
    ));
#430 = CARTESIAN_POINT('',(9.072438580082,-1.477615356315,0.962313821219
    ));
#431 = CARTESIAN_POINT('',(9.191943272832,-1.639878140492,
    9.251325646738E-03));
#432 = CARTESIAN_POINT('',(9.311204771896,-1.271629911111,
    -0.768153966903));
#433 = CARTESIAN_POINT('',(9.430637120043,-0.635809973348,
    -1.156449002397));
#434 = CARTESIAN_POINT('',(9.549995394308,5.634067862543E-07,
    -1.15644869279));
#435 = CARTESIAN_POINT('',(-0.42752528623,9.671083378571E-16,
    -1.537726657127));
#436 = CARTESIAN_POINT('',(-0.308156878808,0.845417591764,
    -1.537738457851));
#437 = CARTESIAN_POINT('',(-0.188758946292,1.690952673518,
    -1.021372512258));
#438 = CARTESIAN_POINT('',(-6.94301981749E-02,2.18042338952,
    1.220334254757E-02));
#439 = CARTESIAN_POINT('',(5.000021158887E-02,1.964896430405,
    1.279753375268));
#440 = CARTESIAN_POINT('',(0.169343329592,0.927523525294,2.239110877605)
  );
#441 = CARTESIAN_POINT('',(0.288707754226,-0.484570649273,2.294299467014
    ));
#442 = CARTESIAN_POINT('',(0.408119421011,-1.533084505738,1.550459379856
    ));
#443 = CARTESIAN_POINT('',(0.527462580387,-1.917942847101,0.473435306991
    ));
#444 = CARTESIAN_POINT('',(0.646850954958,-1.685135662238,
    -0.489535236594));
#445 = CARTESIAN_POINT('',(0.76622471377,-1.087336946865,-1.087336946865
    ));
#446 = CARTESIAN_POINT('',(0.885593121191,-0.489544779169,-1.68514580331
    ));
#447 = CARTESIAN_POINT('',(1.00499105371,0.473464672579,-1.917903531644)
  );
#448 = CARTESIAN_POINT('',(1.124319801822,1.55042123085,-1.53316309832)
  );
#449 = CARTESIAN_POINT('',(1.243750211593,2.294313880174,-0.484469300372
    ));
#450 = CARTESIAN_POINT('',(1.363093329589,2.239148659822,0.927432310941)
  );
#451 = CARTESIAN_POINT('',(1.482457754227,1.279671519135,1.964957903259)
  );
#452 = CARTESIAN_POINT('',(1.601869421011,1.228589131065E-02,
    2.180394791593));
#453 = CARTESIAN_POINT('',(1.721212580386,-1.021421077088,1.690959709138
    ));
#454 = CARTESIAN_POINT('',(1.840600954958,-1.537724539413,0.845417168563
    ));
#455 = CARTESIAN_POINT('',(1.95997471377,-1.537726657126,
    4.173994202647E-14));
#456 = CARTESIAN_POINT('',(2.079343121191,-1.537738457853,
    -0.845417591764));
#457 = CARTESIAN_POINT('',(2.198741053711,-1.021372512254,
    -1.690952673519));
#458 = CARTESIAN_POINT('',(2.318069801821,1.220334254212E-02,
    -2.180423389518));
#459 = CARTESIAN_POINT('',(2.437500211593,1.279753375271,-1.96489643041)
  );
#460 = CARTESIAN_POINT('',(2.55684332959,2.239110877607,-0.927523525289)
  );
#461 = CARTESIAN_POINT('',(2.676207754225,2.294299467008,0.48457064927)
  );
#462 = CARTESIAN_POINT('',(2.795619421013,1.550459379862,1.533084505739)
  );
#463 = CARTESIAN_POINT('',(2.914962580385,0.473435306987,1.917942847102)
  );
#464 = CARTESIAN_POINT('',(3.034350954958,-0.489535236592,1.685135662237
    ));
#465 = CARTESIAN_POINT('',(3.15372471377,-1.087336946866,1.087336946866)
  );
#466 = CARTESIAN_POINT('',(3.273093121192,-1.685145803309,0.489544779168
    ));
#467 = CARTESIAN_POINT('',(3.392491053709,-1.917903531645,
    -0.473464672576));
#468 = CARTESIAN_POINT('',(3.511819801824,-1.53316309832,-1.550421230854
    ));
#469 = CARTESIAN_POINT('',(3.63125021159,-0.48446930037,-2.294313880168)
  );
#470 = CARTESIAN_POINT('',(3.750593329591,0.927432310939,-2.239148659828
    ));
#471 = CARTESIAN_POINT('',(3.869957754226,1.964957903261,-1.279671519131
    ));
#472 = CARTESIAN_POINT('',(3.989369421012,2.180394791592,
    -1.228589131307E-02));
#473 = CARTESIAN_POINT('',(4.108712580386,1.690959709138,1.021421077089)
  );
#474 = CARTESIAN_POINT('',(4.228100954958,0.845417168563,1.537724539412)
  );
#475 = CARTESIAN_POINT('',(4.34747471377,1.711217972877E-14,
    1.537726657127));
#476 = CARTESIAN_POINT('',(4.466843121192,-0.845417591764,1.537738457852
    ));
#477 = CARTESIAN_POINT('',(4.586241053709,-1.690952673518,1.021372512257
    ));
#478 = CARTESIAN_POINT('',(4.705569801824,-2.180423389521,
    -1.220334254673E-02));
#479 = CARTESIAN_POINT('',(4.82500021159,-1.964896430403,-1.279753375268
    ));
#480 = CARTESIAN_POINT('',(4.944343329591,-0.927523525297,
    -2.239110877606));
#481 = CARTESIAN_POINT('',(5.063707754226,0.484570649276,-2.294299467012
    ));
#482 = CARTESIAN_POINT('',(5.183119421011,1.533084505736,-1.550459379858
    ));
#483 = CARTESIAN_POINT('',(5.302462580386,1.917942847102,-0.473435306989
    ));
#484 = CARTESIAN_POINT('',(5.421850954958,1.685135662237,0.489535236593)
  );
#485 = CARTESIAN_POINT('',(5.54122471377,1.087336946866,1.087336946866)
  );
#486 = CARTESIAN_POINT('',(5.660593121192,0.489544779168,1.685145803309)
  );
#487 = CARTESIAN_POINT('',(5.77999105371,-0.473464672577,1.917903531644)
  );
#488 = CARTESIAN_POINT('',(5.899319801822,-1.550421230854,1.533163098322
    ));
#489 = CARTESIAN_POINT('',(6.018750211593,-2.294313880168,0.48446930037)
  );
#490 = CARTESIAN_POINT('',(6.138093329589,-2.239148659829,
    -0.927432310941));
#491 = CARTESIAN_POINT('',(6.257457754226,-1.27967151913,-1.964957903258
    ));
#492 = CARTESIAN_POINT('',(6.376869421013,-1.228589131422E-02,
    -2.180394791594));
#493 = CARTESIAN_POINT('',(6.496212580385,1.021421077089,-1.690959709137
    ));
#494 = CARTESIAN_POINT('',(6.615600954958,1.537724539412,-0.845417168563
    ));
#495 = CARTESIAN_POINT('',(6.73497471377,1.537726657126,
    -8.909706586804E-14));
#496 = CARTESIAN_POINT('',(6.854343121191,1.537738457854,0.845417591764)
  );
#497 = CARTESIAN_POINT('',(6.973741053712,1.021372512252,1.690952673519)
  );
#498 = CARTESIAN_POINT('',(7.093069801819,-1.220334253953E-02,
    2.180423389517));
#499 = CARTESIAN_POINT('',(7.212500211596,-1.279753375273,1.964896430411
    ));
#500 = CARTESIAN_POINT('',(7.331843329587,-2.239110877605,0.927523525285
    ));
#501 = CARTESIAN_POINT('',(7.451207754228,-2.29429946701,-0.484570649265
    ));
#502 = CARTESIAN_POINT('',(7.570619421011,-1.550459379859,
    -1.533084505744));
#503 = CARTESIAN_POINT('',(7.689962580387,-0.473435306989,
    -1.917942847098));
#504 = CARTESIAN_POINT('',(7.809350954957,0.489535236594,-1.685135662239
    ));
#505 = CARTESIAN_POINT('',(7.928724713771,1.087336946864,-1.087336946865
    ));
#506 = CARTESIAN_POINT('',(8.04809329786,1.685145781701,-0.489544460838)
  );
#507 = CARTESIAN_POINT('',(8.167490296399,1.91790362428,0.473463308019)
  );
#508 = CARTESIAN_POINT('',(8.286821757668,1.533162859068,1.55042475498)
  );
#509 = CARTESIAN_POINT('',(8.406246508017,0.484469753427,2.294307206913)
  );
#510 = CARTESIAN_POINT('',(8.525598829542,-0.927432983751,2.239158569867
    ));
#511 = CARTESIAN_POINT('',(8.644951154278,-1.964957095886,1.279659627074
    ));
#512 = CARTESIAN_POINT('',(8.764375902287,-2.180395584445,
    1.229756953997E-02));
#513 = CARTESIAN_POINT('',(8.883707364771,-1.690959071117,-1.0214304748)
  );
#514 = CARTESIAN_POINT('',(9.003104362887,-0.84541758545,-1.537718398864
    ));
#515 = CARTESIAN_POINT('',(9.12247294706,2.161184975754E-07,
    -1.537729840458));
#516 = CARTESIAN_POINT('',(-0.373847192003,-1.292368989603E-15,-2.));
#517 = CARTESIAN_POINT('',(-0.254465940435,1.099550830763,
    -2.000010291225));
#518 = CARTESIAN_POINT('',(-0.13511268662,2.199353818741,-1.328421368944
    ));
#519 = CARTESIAN_POINT('',(-1.569382774471E-02,2.835777004542,
    1.584680642641E-02));
#520 = CARTESIAN_POINT('',(0.10362863013,2.555727215783,1.664557897088)
  );
#521 = CARTESIAN_POINT('',(0.22303386041,1.206271977935,2.912087518771)
  );
#522 = CARTESIAN_POINT('',(0.342418891836,-0.630238037811,2.984178701962
    ));
#523 = CARTESIAN_POINT('',(0.461759119096,-1.993924101876,2.016437307737
    ));
#524 = CARTESIAN_POINT('',(0.581164314221,-2.49454702425,0.615816231778)
  );
#525 = CARTESIAN_POINT('',(0.700526630918,-2.19171252241,-0.636711677274
    ));
#526 = CARTESIAN_POINT('',(0.819902807996,-1.414213562373,
    -1.414213562373));
#527 = CARTESIAN_POINT('',(0.939284059565,-0.636720990677,
    -2.191720688061));
#528 = CARTESIAN_POINT('',(1.058637313379,0.615842241209,-2.494513757711
    ));
#529 = CARTESIAN_POINT('',(1.178056172257,2.016402534124,-1.993991765563
    ));
#530 = CARTESIAN_POINT('',(1.297378630129,2.984192221857,-0.630151868432
    ));
#531 = CARTESIAN_POINT('',(1.416783860411,2.912119927481,1.206193736377)
  );
#532 = CARTESIAN_POINT('',(1.536168891836,1.664487406133,2.555778586728)
  );
#533 = CARTESIAN_POINT('',(1.655509119096,1.591924053118E-02,
    2.835753747747));
#534 = CARTESIAN_POINT('',(1.774914314221,-1.328463283382,2.199358950291
    ));
#535 = CARTESIAN_POINT('',(1.894276630918,-1.999997931668,1.099551642347
    ));
#536 = CARTESIAN_POINT('',(2.013652807996,-2.,4.49655482635E-14));
#537 = CARTESIAN_POINT('',(2.133034059565,-2.000010291227,
    -1.099550830763));
#538 = CARTESIAN_POINT('',(2.252387313379,-1.32842136894,-2.199353818741
    ));
#539 = CARTESIAN_POINT('',(2.371806172258,1.584680642107E-02,
    -2.835777004541));
#540 = CARTESIAN_POINT('',(2.491128630128,1.664557897092,-2.555727215784
    ));
#541 = CARTESIAN_POINT('',(2.610533860412,2.912087518771,-1.206271977934
    ));
#542 = CARTESIAN_POINT('',(2.729918891837,2.984178701958,0.630238037811)
  );
#543 = CARTESIAN_POINT('',(2.849259119094,2.016437307742,1.993924101875)
  );
#544 = CARTESIAN_POINT('',(2.968664314223,0.615816231775,2.494547024252)
  );
#545 = CARTESIAN_POINT('',(3.088026630917,-0.636711677273,2.191712522409
    ));
#546 = CARTESIAN_POINT('',(3.207402807997,-1.414213562373,1.414213562373
    ));
#547 = CARTESIAN_POINT('',(3.326784059565,-2.19172068806,0.636720990676)
  );
#548 = CARTESIAN_POINT('',(3.44613731338,-2.494513757712,-0.615842241207
    ));
#549 = CARTESIAN_POINT('',(3.565556172257,-1.993991765563,
    -2.016402534128));
#550 = CARTESIAN_POINT('',(3.684878630128,-0.630151868432,
    -2.984192221852));
#551 = CARTESIAN_POINT('',(3.804283860412,1.206193736377,-2.912119927485
    ));
#552 = CARTESIAN_POINT('',(3.923668891836,2.555778586728,-1.66448740613)
  );
#553 = CARTESIAN_POINT('',(4.043009119095,2.835753747747,
    -1.59192405329E-02));
#554 = CARTESIAN_POINT('',(4.162414314222,2.199358950291,1.328463283383)
  );
#555 = CARTESIAN_POINT('',(4.281776630917,1.099551642347,1.999997931667)
  );
#556 = CARTESIAN_POINT('',(4.401152807996,4.389977964481E-14,2.));
#557 = CARTESIAN_POINT('',(4.520534059565,-1.099550830763,2.000010291225
    ));
#558 = CARTESIAN_POINT('',(4.63988731338,-2.19935381874,1.328421368943)
  );
#559 = CARTESIAN_POINT('',(4.759306172256,-2.835777004544,
    -1.584680642532E-02));
#560 = CARTESIAN_POINT('',(4.87862863013,-2.555727215781,-1.664557897089
    ));
#561 = CARTESIAN_POINT('',(4.998033860409,-1.206271977938,
    -2.912087518771));
#562 = CARTESIAN_POINT('',(5.117418891838,0.630238037814,-2.984178701961
    ));
#563 = CARTESIAN_POINT('',(5.236759119094,1.993924101874,-2.016437307739
    ));
#564 = CARTESIAN_POINT('',(5.356164314223,2.494547024251,-0.615816231777
    ));
#565 = CARTESIAN_POINT('',(5.475526630917,2.191712522409,0.636711677273)
  );
#566 = CARTESIAN_POINT('',(5.594902807997,1.414213562373,1.414213562373)
  );
#567 = CARTESIAN_POINT('',(5.714284059565,0.636720990677,2.19172068806)
  );
#568 = CARTESIAN_POINT('',(5.833637313378,-0.615842241208,2.494513757711
    ));
#569 = CARTESIAN_POINT('',(5.95305617226,-2.016402534127,1.993991765564)
  );
#570 = CARTESIAN_POINT('',(6.072378630124,-2.984192221853,0.630151868433
    ));
#571 = CARTESIAN_POINT('',(6.191783860416,-2.912119927486,
    -1.206193736379));
#572 = CARTESIAN_POINT('',(6.311168891834,-1.664487406129,
    -2.555778586724));
#573 = CARTESIAN_POINT('',(6.430509119096,-1.591924053398E-02,
    -2.835753747749));
#574 = CARTESIAN_POINT('',(6.549914314222,1.328463283383,-2.19935895029)
  );
#575 = CARTESIAN_POINT('',(6.669276630917,1.999997931668,-1.099551642347
    ));
#576 = CARTESIAN_POINT('',(6.788652807996,1.999999999999,
    -4.060211580192E-14));
#577 = CARTESIAN_POINT('',(6.908034059566,2.000010291227,1.099550830763)
  );
#578 = CARTESIAN_POINT('',(7.027387313378,1.328421368939,2.199353818741)
  );
#579 = CARTESIAN_POINT('',(7.14680617226,-1.58468064195E-02,
    2.83577700454));
#580 = CARTESIAN_POINT('',(7.266128630124,-1.664557897092,2.555727215787
    ));
#581 = CARTESIAN_POINT('',(7.385533860416,-2.912087518772,1.20627197793)
  );
#582 = CARTESIAN_POINT('',(7.504918891832,-2.984178701958,
    -0.630238037805));
#583 = CARTESIAN_POINT('',(7.624259119098,-2.016437307741,-1.99392410188
    ));
#584 = CARTESIAN_POINT('',(7.74366431422,-0.615816231777,-2.494547024248
    ));
#585 = CARTESIAN_POINT('',(7.863026630919,0.636711677274,-2.191712522411
    ));
#586 = CARTESIAN_POINT('',(7.982402807996,1.414213562372,-1.414213562372
    ));
#587 = CARTESIAN_POINT('',(8.101783892033,2.191720708557,-0.636720712316
    ));
#588 = CARTESIAN_POINT('',(8.221138031528,2.494513669857,0.615841047984)
  );
#589 = CARTESIAN_POINT('',(8.340554317555,1.993991992448,2.016405615767)
  );
#590 = CARTESIAN_POINT('',(8.459882142176,0.630151438814,2.984186386485)
  );
#591 = CARTESIAN_POINT('',(8.579278644888,-1.206193098382,2.91212859323)
  );
#592 = CARTESIAN_POINT('',(8.698675150468,-2.555779352323,1.664477007228
    ));
#593 = CARTESIAN_POINT('',(8.818002973,-2.835752995913,
    1.592945245275E-02));
#594 = CARTESIAN_POINT('',(8.937419260112,-2.199359555311,
    -1.328471501125));
#595 = CARTESIAN_POINT('',(9.056773399228,-1.09955124702,-1.999992562122
    ));
#596 = CARTESIAN_POINT('',(9.176154483342,-2.04942464388E-07,
    -2.000002783635));
#597 = CARTESIAN_POINT('',(2.22044604925E-16,-1.908195823574E-17,-2.));
#598 = CARTESIAN_POINT('',(0.119381251567,1.099550262443,-1.999999985508
    ));
#599 = CARTESIAN_POINT('',(0.23873450533,2.199354697457,-1.328446076256)
  );
#600 = CARTESIAN_POINT('',(0.358153364471,2.835764037164,
    1.588914304727E-02));
#601 = CARTESIAN_POINT('',(0.477475821636,2.555749679318,1.664513947494)
  );
#602 = CARTESIAN_POINT('',(0.596881053149,1.206234686207,2.912109257436)
  );
#603 = CARTESIAN_POINT('',(0.716266083094,-0.630197552584,2.984176552163
    ));
#604 = CARTESIAN_POINT('',(0.835606311602,-1.993953211806,2.016424037175
    ));
#605 = CARTESIAN_POINT('',(0.955011506004,-2.494531270909,0.615825219719
    ));
#606 = CARTESIAN_POINT('',(1.074373822966,-2.191713364252,
    -0.636713601198));
#607 = CARTESIAN_POINT('',(1.19375,-1.414213562373,-1.414213562373));
#608 = CARTESIAN_POINT('',(1.313131251568,-0.636714105297,
    -2.191712998955));
#609 = CARTESIAN_POINT('',(1.432484505328,0.615825391845,-2.494531849767
    ));
#610 = CARTESIAN_POINT('',(1.551903364473,2.016423301319,-1.993952659729
    ));
#611 = CARTESIAN_POINT('',(1.671225821634,2.984177028914,-0.630198829606
    ));
#612 = CARTESIAN_POINT('',(1.790631053151,2.912108929809,1.206235477168)
  );
#613 = CARTESIAN_POINT('',(1.910016083092,1.664514513372,2.555748439213)
  );
#614 = CARTESIAN_POINT('',(2.029356311603,1.588927299777E-02,
    2.83576494787));
#615 = CARTESIAN_POINT('',(2.148761506004,-1.328445788652,2.199354166431
    ));
#616 = CARTESIAN_POINT('',(2.268123822966,-1.999999887361,1.099550877199
    ));
#617 = CARTESIAN_POINT('',(2.3875,-2.,6.343536806952E-15));
#618 = CARTESIAN_POINT('',(2.506881251568,-1.999999985508,
    -1.099550262443));
#619 = CARTESIAN_POINT('',(2.626234505328,-1.328446076256,
    -2.199354697457));
#620 = CARTESIAN_POINT('',(2.745653364474,1.588914304625E-02,
    -2.835764037165));
#621 = CARTESIAN_POINT('',(2.864975821633,1.664513947495,-2.555749679316
    ));
#622 = CARTESIAN_POINT('',(2.984381053151,2.912109257436,-1.206234686209
    ));
#623 = CARTESIAN_POINT('',(3.103766083093,2.984176552162,0.630197552586)
  );
#624 = CARTESIAN_POINT('',(3.223106311602,2.016424037175,1.993953211805)
  );
#625 = CARTESIAN_POINT('',(3.342511506005,0.615825219719,2.494531270909)
  );
#626 = CARTESIAN_POINT('',(3.461873822965,-0.636713601198,2.191713364252
    ));
#627 = CARTESIAN_POINT('',(3.58125,-1.414213562373,1.414213562373));
#628 = CARTESIAN_POINT('',(3.700631251567,-2.191712998955,0.636714105297
    ));
#629 = CARTESIAN_POINT('',(3.819984505329,-2.494531849767,
    -0.615825391845));
#630 = CARTESIAN_POINT('',(3.939403364473,-1.993952659729,
    -2.016423301319));
#631 = CARTESIAN_POINT('',(4.058725821634,-0.630198829606,
    -2.984177028914));
#632 = CARTESIAN_POINT('',(4.178131053151,1.206235477168,-2.912108929809
    ));
#633 = CARTESIAN_POINT('',(4.297516083093,2.555748439213,-1.664514513373
    ));
#634 = CARTESIAN_POINT('',(4.416856311602,2.83576494787,
    -1.588927299711E-02));
#635 = CARTESIAN_POINT('',(4.536261506004,2.199354166431,1.328445788652)
  );
#636 = CARTESIAN_POINT('',(4.655623822966,1.099550877199,1.999999887361)
  );
#637 = CARTESIAN_POINT('',(4.775,2.219838896034E-14,2.));
#638 = CARTESIAN_POINT('',(4.894381251567,-1.099550262443,1.999999985508
    ));
#639 = CARTESIAN_POINT('',(5.013734505329,-2.199354697457,1.328446076256
    ));
#640 = CARTESIAN_POINT('',(5.133153364472,-2.835764037165,
    -1.588914304718E-02));
#641 = CARTESIAN_POINT('',(5.252475821636,-2.555749679318,
    -1.664513947494));
#642 = CARTESIAN_POINT('',(5.371881053148,-1.206234686208,
    -2.912109257437));
#643 = CARTESIAN_POINT('',(5.491266083095,0.630197552584,-2.984176552162
    ));
#644 = CARTESIAN_POINT('',(5.6106063116,1.993953211806,-2.016424037175)
  );
#645 = CARTESIAN_POINT('',(5.730011506005,2.494531270908,-0.615825219719
    ));
#646 = CARTESIAN_POINT('',(5.849373822966,2.191713364253,0.636713601198)
  );
#647 = CARTESIAN_POINT('',(5.96875,1.414213562373,1.414213562373));
#648 = CARTESIAN_POINT('',(6.088131251567,0.636714105297,2.191712998955)
  );
#649 = CARTESIAN_POINT('',(6.207484505328,-0.615825391845,2.494531849767
    ));
#650 = CARTESIAN_POINT('',(6.326903364476,-2.01642330132,1.993952659729)
  );
#651 = CARTESIAN_POINT('',(6.446225821629,-2.984177028912,0.630198829607
    ));
#652 = CARTESIAN_POINT('',(6.565631053156,-2.912108929811,
    -1.206235477169));
#653 = CARTESIAN_POINT('',(6.68501608309,-1.664514513371,-2.555748439211
    ));
#654 = CARTESIAN_POINT('',(6.804356311603,-1.58892729978E-02,
    -2.835764947871));
#655 = CARTESIAN_POINT('',(6.923761506004,1.328445788652,-2.19935416643)
  );
#656 = CARTESIAN_POINT('',(7.043123822966,1.999999887361,-1.099550877199
    ));
#657 = CARTESIAN_POINT('',(7.1625,2.,2.255556852404E-14));
#658 = CARTESIAN_POINT('',(7.281881251568,1.999999985508,1.099550262443)
  );
#659 = CARTESIAN_POINT('',(7.401234505327,1.328446076256,2.199354697457)
  );
#660 = CARTESIAN_POINT('',(7.520653364476,-1.588914304684E-02,
    2.835764037165));
#661 = CARTESIAN_POINT('',(7.63997582163,-1.664513947494,2.555749679316)
  );
#662 = CARTESIAN_POINT('',(7.759381053155,-2.912109257438,1.206234686209
    ));
#663 = CARTESIAN_POINT('',(7.878766083089,-2.984176552161,
    -0.630197552585));
#664 = CARTESIAN_POINT('',(7.998106311605,-2.016424037176,
    -1.993953211806));
#665 = CARTESIAN_POINT('',(8.117511506002,-0.615825219719,
    -2.494531270908));
#666 = CARTESIAN_POINT('',(8.236873822967,0.636713601198,-2.191713364252
    ));
#667 = CARTESIAN_POINT('',(8.356249999999,1.414213562373,-1.414213562373
    ));
#668 = CARTESIAN_POINT('',(8.475631084036,2.191713019449,-0.636714105298
    ));
#669 = CARTESIAN_POINT('',(8.594985223473,2.494531761918,0.615825391848)
  );
#670 = CARTESIAN_POINT('',(8.714401509782,1.99395288661,2.016423301313)
  );
#671 = CARTESIAN_POINT('',(8.83372933366,0.630198399988,2.984177028925)
  );
#672 = CARTESIAN_POINT('',(8.95312583766,-1.206234839168,2.912108929792)
  );
#673 = CARTESIAN_POINT('',(9.072522341685,-2.555749204814,1.664514513394
    ));
#674 = CARTESIAN_POINT('',(9.191850165545,-2.835764196034,
    1.588927297522E-02));
#675 = CARTESIAN_POINT('',(9.311266451863,-2.199354771449,
    -1.328445788634));
#676 = CARTESIAN_POINT('',(9.430620591297,-1.099550481874,
    -1.999999887373));
#677 = CARTESIAN_POINT('',(9.550001675335,-2.049410065463E-07,
    -1.999999999994));
#678 = DEFINITIONAL_REPRESENTATION('',(#679),#683);
#679 = LINE('',#680,#681);
#680 = CARTESIAN_POINT('',(6.28318530718,0.));
#681 = VECTOR('',#682,1.);
#682 = DIRECTION('',(0.,1.));
#683 = ( GEOMETRIC_REPRESENTATION_CONTEXT(2) 
PARAMETRIC_REPRESENTATION_CONTEXT() REPRESENTATION_CONTEXT('2D SPACE',''
  ) );
#684 = PCURVE('',#110,#685);
#685 = DEFINITIONAL_REPRESENTATION('',(#686),#690);
#686 = LINE('',#687,#688);
#687 = CARTESIAN_POINT('',(0.,0.));
#688 = VECTOR('',#689,1.);
#689 = DIRECTION('',(0.,1.));
#690 = ( GEOMETRIC_REPRESENTATION_CONTEXT(2) 
PARAMETRIC_REPRESENTATION_CONTEXT() REPRESENTATION_CONTEXT('2D SPACE',''
  ) );
#691 = ORIENTED_EDGE('',*,*,#692,.F.);
#692 = EDGE_CURVE('',#24,#24,#693,.T.);
#693 = SURFACE_CURVE('',#694,(#702,#709),.PCURVE_S1.);
#694 = ( BOUNDED_CURVE() B_SPLINE_CURVE(6,(#695,#696,#697,#698,#699,#700
,#701),.UNSPECIFIED.,.T.,.F.) B_SPLINE_CURVE_WITH_KNOTS((1,6,6,1),(
    -6.28318530718,0.,6.28318530718,12.566370614359),.UNSPECIFIED.) 
CURVE() GEOMETRIC_REPRESENTATION_ITEM() RATIONAL_B_SPLINE_CURVE((
    1.669078461068,1.03672962321,1.038346699848,0.853534330196,
1.038346699848,1.03672962321,1.669078461068)) REPRESENTATION_ITEM('') );
#695 = CARTESIAN_POINT('',(9.550001675335,-2.049410065463E-07,
    -1.999999999994));
#696 = CARTESIAN_POINT('',(9.923848867328,-2.049395495356E-07,
    -1.999997216352));
#697 = CARTESIAN_POINT('',(9.977523519497,2.161218338702E-07,
    -1.537723473808));
#698 = CARTESIAN_POINT('',(9.549995394308,5.634067862543E-07,
    -1.15644869279));
#699 = CARTESIAN_POINT('',(9.12247294706,2.161184975754E-07,
    -1.537729840458));
#700 = CARTESIAN_POINT('',(9.176154483342,-2.04942464388E-07,
    -2.000002783635));
#701 = CARTESIAN_POINT('',(9.550001675335,-2.049410065463E-07,
    -1.999999999994));
#702 = PCURVE('',#110,#703);
#703 = DEFINITIONAL_REPRESENTATION('',(#704),#708);
#704 = LINE('',#705,#706);
#705 = CARTESIAN_POINT('',(0.,45.007165680739));
#706 = VECTOR('',#707,1.);
#707 = DIRECTION('',(1.,0.));
#708 = ( GEOMETRIC_REPRESENTATION_CONTEXT(2) 
PARAMETRIC_REPRESENTATION_CONTEXT() REPRESENTATION_CONTEXT('2D SPACE',''
  ) );
#709 = PCURVE('',#710,#715);
#710 = PLANE('',#711);
#711 = AXIS2_PLACEMENT_3D('',#712,#713,#714);
#712 = CARTESIAN_POINT('',(9.550000000265,-3.246834526233E-11,
    -1.775035645228));
#713 = DIRECTION('',(-2.882148494367E-12,-1.,9.108489142891E-07));
#714 = DIRECTION('',(-1.110223024625E-16,9.108489142891E-07,1.));
#715 = DEFINITIONAL_REPRESENTATION('',(#716),#724);
#716 = ( BOUNDED_CURVE() B_SPLINE_CURVE(6,(#717,#718,#719,#720,#721,#722
,#723),.UNSPECIFIED.,.T.,.F.) B_SPLINE_CURVE_WITH_KNOTS((1,6,6,1),(
    -6.28318530718,0.,6.28318530718,12.566370614359),.UNSPECIFIED.) 
CURVE() GEOMETRIC_REPRESENTATION_ITEM() RATIONAL_B_SPLINE_CURVE((
    1.669078461068,1.03672962321,1.038346699848,0.853534330196,
1.038346699848,1.03672962321,1.669078461068)) REPRESENTATION_ITEM('') );
#717 = CARTESIAN_POINT('',(-0.224964354766,-1.675069736251E-06));
#718 = CARTESIAN_POINT('',(-0.224961571124,-0.373848867063));
#719 = CARTESIAN_POINT('',(0.23731217142,-0.427523519231));
#720 = CARTESIAN_POINT('',(0.618586952438,4.605957595771E-06));
#721 = CARTESIAN_POINT('',(0.23730580477,0.427527053205));
#722 = CARTESIAN_POINT('',(-0.224967138407,0.373845516923));
#723 = CARTESIAN_POINT('',(-0.224964354766,-1.675069736251E-06));
#724 = ( GEOMETRIC_REPRESENTATION_CONTEXT(2) 
PARAMETRIC_REPRESENTATION_CONTEXT() REPRESENTATION_CONTEXT('2D SPACE',''
  ) );
#725 = ORIENTED_EDGE('',*,*,#21,.F.);
#726 = ORIENTED_EDGE('',*,*,#727,.T.);
#727 = EDGE_CURVE('',#22,#22,#728,.T.);
#728 = SURFACE_CURVE('',#729,(#737,#744),.PCURVE_S1.);
#729 = ( BOUNDED_CURVE() B_SPLINE_CURVE(6,(#730,#731,#732,#733,#734,#735
,#736),.UNSPECIFIED.,.T.,.F.) B_SPLINE_CURVE_WITH_KNOTS((1,6,6,1),(
    -6.28318530718,0.,6.28318530718,12.566370614359),.UNSPECIFIED.) 
CURVE() GEOMETRIC_REPRESENTATION_ITEM() RATIONAL_B_SPLINE_CURVE((
    1.669078461068,1.03672962321,1.038346699848,0.853534330196,
1.038346699848,1.03672962321,1.669078461068)) REPRESENTATION_ITEM('') );
#730 = CARTESIAN_POINT('',(2.22044604925E-16,-1.908195823574E-17,-2.));
#731 = CARTESIAN_POINT('',(0.373847192003,-1.936818760928E-15,-2.));
#732 = CARTESIAN_POINT('',(0.42752528623,5.412337245048E-16,
    -1.537726657127));
#733 = CARTESIAN_POINT('',(1.904748435952E-15,3.460773334574E-16,
    -1.156448692773));
#734 = CARTESIAN_POINT('',(-0.42752528623,9.671083378571E-16,
    -1.537726657127));
#735 = CARTESIAN_POINT('',(-0.373847192003,-1.292368989603E-15,-2.));
#736 = CARTESIAN_POINT('',(2.22044604925E-16,-1.908195823574E-17,-2.));
#737 = PCURVE('',#110,#738);
#738 = DEFINITIONAL_REPRESENTATION('',(#739),#743);
#739 = LINE('',#740,#741);
#740 = CARTESIAN_POINT('',(0.,0.));
#741 = VECTOR('',#742,1.);
#742 = DIRECTION('',(1.,0.));
#743 = ( GEOMETRIC_REPRESENTATION_CONTEXT(2) 
PARAMETRIC_REPRESENTATION_CONTEXT() REPRESENTATION_CONTEXT('2D SPACE',''
  ) );
#744 = PCURVE('',#745,#750);
#745 = PLANE('',#746);
#746 = AXIS2_PLACEMENT_3D('',#747,#748,#749);
#747 = CARTESIAN_POINT('',(3.050069308671E-16,-1.415787664015E-16,
    -1.775035645228));
#748 = DIRECTION('',(-7.001308815393E-16,-1.,7.29138430478E-16));
#749 = DIRECTION('',(-1.110223024625E-16,7.29138430478E-16,1.));
#750 = DEFINITIONAL_REPRESENTATION('',(#751),#759);
#751 = ( BOUNDED_CURVE() B_SPLINE_CURVE(6,(#752,#753,#754,#755,#756,#757
,#758),.UNSPECIFIED.,.T.,.F.) B_SPLINE_CURVE_WITH_KNOTS((1,6,6,1),(
    -6.28318530718,0.,6.28318530718,12.566370614359),.UNSPECIFIED.) 
CURVE() GEOMETRIC_REPRESENTATION_ITEM() RATIONAL_B_SPLINE_CURVE((
    1.669078461068,1.03672962321,1.038346699848,0.853534330196,
1.038346699848,1.03672962321,1.669078461068)) REPRESENTATION_ITEM('') );
#752 = CARTESIAN_POINT('',(-0.224964354772,1.079383865808E-16));
#753 = CARTESIAN_POINT('',(-0.224964354772,-0.373847192003));
#754 = CARTESIAN_POINT('',(0.237308988101,-0.42752528623));
#755 = CARTESIAN_POINT('',(0.618586952455,-1.668418452819E-15));
#756 = CARTESIAN_POINT('',(0.237308988101,0.42752528623));
#757 = CARTESIAN_POINT('',(-0.224964354772,0.373847192003));
#758 = CARTESIAN_POINT('',(-0.224964354772,1.079383865808E-16));
#759 = ( GEOMETRIC_REPRESENTATION_CONTEXT(2) 
PARAMETRIC_REPRESENTATION_CONTEXT() REPRESENTATION_CONTEXT('2D SPACE',''
  ) );
#760 = ADVANCED_FACE('',(#761),#745,.T.);
#761 = FACE_BOUND('',#762,.T.);
#762 = EDGE_LOOP('',(#763));
#763 = ORIENTED_EDGE('',*,*,#727,.T.);
#764 = ADVANCED_FACE('',(#765),#710,.F.);
#765 = FACE_BOUND('',#766,.F.);
#766 = EDGE_LOOP('',(#767));
#767 = ORIENTED_EDGE('',*,*,#692,.T.);
#768 = ( GEOMETRIC_REPRESENTATION_CONTEXT(3) 
GLOBAL_UNCERTAINTY_ASSIGNED_CONTEXT((#772)) GLOBAL_UNIT_ASSIGNED_CONTEXT
((#769,#770,#771)) REPRESENTATION_CONTEXT('Context #1',
  '3D Context with UNIT and UNCERTAINTY') );
#769 = ( LENGTH_UNIT() NAMED_UNIT(*) SI_UNIT(.MILLI.,.METRE.) );
#770 = ( NAMED_UNIT(*) PLANE_ANGLE_UNIT() SI_UNIT($,.RADIAN.) );
#771 = ( NAMED_UNIT(*) SI_UNIT($,.STERADIAN.) SOLID_ANGLE_UNIT() );
#772 = UNCERTAINTY_MEASURE_WITH_UNIT(LENGTH_MEASURE(5.E-06),#769,
  'distance_accuracy_value','confusion accuracy');
#773 = PRODUCT_RELATED_PRODUCT_CATEGORY('part',$,(#7));
ENDSEC;
END-ISO-10303-21;
